# Cornell Box Short Block
mtllib cornell_box_short_block.mtl

o short_block
usemtl white
v    130.0 165.0  65.0
v     82.0 165.0 225.0
v    240.0 165.0 272.0
v    290.0 165.0 114.0
f 1 2 3 4

v    290.0   0.0 114.0
v    290.0 165.0 114.0
v    240.0 165.0 272.0
v    240.0   0.0 272.0
f 5 6 7 8

v    130.0   0.0  65.0
v    130.0 165.0  65.0
v    290.0 165.0 114.0
v    290.0   0.0 114.0
f 9 10 11 12

v     82.0   0.0 225.0
v     82.0 165.0 225.0
v    130.0 165.0  65.0
v    130.0   0.0  65.0
f 13 14 15 16

v    240.0   0.0 272.0
v    240.0 165.0 272.0
v     82.0 165.0 225.0
v     82.0   0.0 225.0
f 17 18 19 20

