# Cornell Box Tall Block
mtllib cornell_box_tall_block.mtl

o tall_block
usemtl white
v    423.0 330.0 247.0
v    265.0 330.0 296.0
v    314.0 330.0 456.0
v    472.0 330.0 406.0
f 1 2 3 4

v    423.0   0.0 247.0
v    423.0 330.0 247.0
v    472.0 330.0 406.0
v    472.0   0.0 406.0
f 5 6 7 8

v    472.0   0.0 406.0
v    472.0 330.0 406.0
v    314.0 330.0 456.0
v    314.0   0.0 456.0
f 9 10 11 12

v    314.0   0.0 456.0
v    314.0 330.0 456.0
v    265.0 330.0 296.0
v    265.0   0.0 296.0
f 13 14 15 16

v    265.0   0.0 296.0
v    265.0 330.0 296.0
v    423.0 330.0 247.0
v    423.0   0.0 247.0
f 17 18 19 20

