# 棱形八面体 (Rhombic Dodecahedron)
# 顶点坐标
v 0.0 0.0 1.414
v 1.0 1.0 0.0
v 1.0 -1.0 0.0
v -1.0 -1.0 0.0
v -1.0 1.0 0.0
v 0.0 0.0 -1.414

# 法向量 (每个面一个法向)
vn 0.577 0.577 0.577
vn 0.577 -0.577 0.577
vn -0.577 -0.577 0.577
vn -0.577 0.577 0.577
vn 0.577 0.577 -0.577
vn 0.577 -0.577 -0.577
vn -0.577 -0.577 -0.577
vn -0.577 0.577 -0.577
vn 0.707 0.0 0.707
vn 0.0 -0.707 0.707
vn -0.707 0.0 0.707
vn 0.0 0.707 0.707
vn 0.707 0.0 -0.707
vn 0.0 -0.707 -0.707
vn -0.707 0.0 -0.707
vn 0.0 0.707 -0.707

# 面定义 (顶点索引/法向索引)
f 1//1 2//1 5//1
f 1//2 3//2 2//2
f 1//3 4//3 3//3
f 1//4 5//4 4//4
f 6//5 5//5 2//5
f 6//6 2//6 3//6
f 6//7 3//7 4//7
f 6//8 4//8 5//8
f 2//9 3//9 6//9
f 3//10 4//10 6//10
f 4//11 5//11 6//11
f 5//12 2//12 6//12
